<?xml version="1.0" encoding="UTF-8"?>
<svg width="600" height="400" viewBox="0 0 600 400" xmlns="http://www.w3.org/2000/svg">
  <defs>
    <linearGradient id="classicalGrad" x1="0%" y1="0%" x2="100%" y2="100%">
      <stop offset="0%" style="stop-color:#2d3436;stop-opacity:1" />
      <stop offset="50%" style="stop-color:#636e72;stop-opacity:1" />
      <stop offset="100%" style="stop-color:#ddd6fe;stop-opacity:1" />
    </linearGradient>
    <radialGradient id="elegantLight" cx="50%" cy="30%" r="50%">
      <stop offset="0%" style="stop-color:#ffffff;stop-opacity:0.4" />
      <stop offset="100%" style="stop-color:#ffffff;stop-opacity:0" />
    </radialGradient>
  </defs>
  
  <!-- Background -->
  <rect width="600" height="400" fill="url(#classicalGrad)"/>
  
  <!-- Elegant lighting -->
  <ellipse cx="300" cy="120" rx="200" ry="120" fill="url(#elegantLight)"/>
  
  <!-- Grand piano -->
  <ellipse cx="350" cy="250" rx="120" ry="80" fill="#2d3436" opacity="0.9"/>
  <rect x="250" y="220" width="180" height="60" rx="10" fill="#2d3436" opacity="0.9"/>
  <rect x="260" y="210" width="160" height="10" fill="#ffffff" opacity="0.9"/>
  
  <!-- Piano legs -->
  <rect x="270" y="280" width="8" height="40" fill="#2d3436" opacity="0.9"/>
  <rect x="420" y="280" width="8" height="40" fill="#2d3436" opacity="0.9"/>
  <rect x="345" y="280" width="8" height="40" fill="#2d3436" opacity="0.9"/>
  
  <!-- Performer -->
  <ellipse cx="200" cy="240" rx="30" ry="50" fill="#2d3436" opacity="0.8"/>
  <ellipse cx="200" cy="210" rx="20" ry="15" fill="#2d3436" opacity="0.8"/>
  
  <!-- Classical musical elements -->
  <text x="80" y="80" font-family="serif" font-size="40" fill="#ffffff" opacity="0.3">ğ„</text>
  <text x="480" y="100" font-family="serif" font-size="35" fill="#ffffff" opacity="0.3">ğ„¢</text>
  
  <!-- Floating notes -->
  <g fill="#ffffff" opacity="0.5">
    <text x="150" y="150" font-family="serif" font-size="20">â™ª</text>
    <text x="450" y="180" font-family="serif" font-size="25">â™«</text>
    <text x="300" y="100" font-family="serif" font-size="18">â™ª</text>
  </g>
  
  <!-- Text -->
  <text x="300" y="370" font-family="serif" font-size="28" font-weight="bold" text-anchor="middle" fill="#ffffff">Classical Concert</text>
</svg>